<?xml version="1.0" encoding="utf-8"?>
<svg version="1.0" id="Capa_1" xmlns="http://www.w3.org/2000/svg" xmlns:xlink="http://www.w3.org/1999/xlink" x="0px" y="0px"
	 viewBox="0 0 509 150.5" style="enable-background:new 0 0 509 150.5;" xml:space="preserve">
<style type="text/css">
	.st0{fill:#E65C09;}
	.st1{fill:#161214;}
</style>
<g>
	<path class="st0" d="M2.43,67.1c0-15.48,7.13-29.68,19.06-40.82c-5.35,10.18,26.17,21.55,33.63,26.18
		c0.48,0.31,0.93,0.61,1.43,0.92c1.94,1.17,3.09,1.84,3.09,1.84c7.98,4.83,12.79,8.64,15.6,11.22c1.13,0.95,2.16,1.98,3.09,3.1
		c1.95,2.34,3.37,4.89,4.3,7.67c3.58,10.67-0.62,23.28-10.55,35.59c-0.35,0.46-0.41,0.7-0.49,1.08c-0.19,1.11,0.49,2.22,1.44,2.46
		c0.44,0.09,0.83,0,1.2-0.16c24.23-11.92,42.03-31.99,49.88-54.1l0.3-0.83c3.81-11.01,3.49-21.95-8.37-25.79
		c0,0-9.77-4.89-32.7-3.88c-8.27,0.39-19.87,2.58-27.99,4.03c-8.67,1.24-21.65,4.75-17.61-4.03c1.54-3.43,5.21-8.7,8.89-12.1
		C57.52,9.41,75.47,2.81,95.75,2.81c8.26,0,16.09,1.1,23.26,3.06l0.21,0.05l1.25,0.39l1.47,0.44
		c32.91,10.41,52.99,36.26,52.99,60.36c0,35.94-38.62,65.08-86.25,65.08C41.03,132.18,2.43,103.05,2.43,67.1"/>
	<polygon class="st0" points="119.22,5.92 119,5.87 120.46,6.31 	"/>
	<path class="st1" d="M376.36,79.29v0.02c0,11.75,3.92,21.47,11.76,28.17c7.84,6.73,19.51,10.4,34.9,10.4h3.83h3.16h3.25v-7h-2.35
		h-0.9h-0.14h-0.05c-5.61,0-10.87-1.04-12.93-1.5c-0.08-0.01-0.12-0.02-0.17-0.03l-0.12-0.02v-0.02l-0.66-0.18
		c-12.62-3.28-21.01-13.71-21.06-30.33V24.46h-2.88h-3.83h-11.81V79.29L376.36,79.29z"/>
	<path class="st1" d="M461.2,24.46h-3.83h-22.92h-4.74v4.11h3.24c3.2,0.01,4.79,0.94,5.82,2.55c1.03,1.62,1.39,4.19,1.43,7.4v79.35
		h0.91h3.84h10.85h2.63V86.92h31.15v21.57c0,5.51,4.73,9.38,9.26,9.38h4.12h2.85h2.11V63.09v-0.07c0-11.74-3.86-21.45-11.68-28.17
		C488.43,28.13,476.74,24.46,461.2,24.46 M458.56,76.85h-0.12V31.49h0.12c0.6,0,1.2,0,1.83,0h0.01h0.03
		c9.61,0,18.07,4.6,23.03,11.54c3.86,5.15,6.13,12.02,6.13,20.51v13.33L458.56,76.85L458.56,76.85z"/>
	<path class="st1" d="M319.31,24.46h-6.86v-0.01H294.2v0.01h-10.42v4.11h3.21c3.29,0.03,4.85,1.01,5.88,2.74
		c1,1.71,1.32,4.42,1.32,7.77v0.16v71.33v0.83v1.04v1.08l1.09-0.21c6.75-1.34,11.66-3.39,16.86-7.86l0.32-0.29V31.47h0.12
		c5.32,0.07,10.21,1,12.26,1.46l0.17,0.04c0.05,0,0.08,0,0.08,0h0.02c0.08,0.04,0.18,0.06,0.24,0.07l0.56,0.14
		c12.62,3.3,21.02,13.72,21.07,30.33c0,3.35-0.1,6.69-0.33,10.02c-0.18,2.86-0.52,5.75-1.05,8.57c-0.34,1.81-0.77,3.62-1.28,5.41
		v0.04c-1.42,6.34-8.03,24.14-42.16,27.59h-0.14l-0.16,0.06c-0.2,0.1-0.42,0.2-0.64,0.35c-0.38,0.21-0.78,0.37-1.2,0.58l0.42,1.74
		c0.29-0.02,1.12,0,1.51,0c14.08-0.02,29.8-1.29,42.15-8.84c12.34-7.54,21.07-21.38,21.09-45.83V63.1c-0.03-0.04,0-0.06-0.03-0.06
		c0-11.67-3.74-21.35-11.43-28.06c-7.68-6.71-19.16-10.42-34.37-10.51"/>
	<path class="st1" d="M277.92,113.86L277.92,113.86c-3.3-0.03-4.88-1.01-5.88-2.73c-1.01-1.73-1.34-4.44-1.34-7.79v-0.15V24.46
		h-0.94h-14.52l-2.81-0.01v86.53h-0.13c-5.35-0.08-10.24-1.04-12.29-1.49l-0.13-0.02v-0.02c-0.07-0.02-0.15-0.03-0.23-0.05v0.01
		l-0.67-0.19c-0.03,0-0.04-0.02-0.09-0.02c-0.04,0-0.04-0.01-0.04-0.01c-12.53-3.34-20.86-13.74-20.92-30.29V36.15v-1.17v-1.33
		c0-5.52-5.01-9.18-9.83-9.18h-0.01h-8.38v54.92v0.04c0,11.73,3.83,21.42,11.61,28.11c7.75,6.7,19.37,10.35,34.79,10.35h3.8h26.49
		h4.72v-4.02H277.92z"/>
	<path class="st1" d="M207.66,140.72c0,0.92-0.15,1.67-0.49,2.28c-0.28,0.52-0.97,0.83-2.22,0.83c-1.23,0-1.91-0.31-2.17-0.82
		c-0.31-0.61-0.48-1.35-0.48-2.29v-10.57h-2.75v11c-0.01,1.63,0.49,2.91,1.51,3.76c0.99,0.84,2.3,1.25,3.9,1.25
		c1.62,0,2.94-0.41,3.96-1.28c1.01-0.86,1.52-2.14,1.49-3.73v-11h-2.75V140.72z M222.41,141.17l-5.56-11.01l-3.22-0.01v0.29v15.5
		h2.55l0.04-11.31l5.71,11.31h3.05v-15.78h-2.53L222.41,141.17z M228.35,130.44v15.49h2.78v-15.78h-2.78V130.44z M239.11,142.23
		l-3.95-12.08l-2.88,0.01l0.12,0.37l5.14,15.41h3.14l5.37-15.78l-2.93-0.01L239.11,142.23z M249.96,138.89h5.9v-2.04v-0.29h-5.9
		v-4.1h6.2v-2.04v-0.29h-8.95v0.29v15.5h9.16v-2.05v-0.28h-6.4V138.89L249.96,138.89z M266.86,138.95
		c-0.24-0.39-0.63-0.71-1.17-0.94c0.59-0.21,1.08-0.53,1.49-0.92c0.6-0.63,0.87-1.53,0.87-2.66c0-1.44-0.44-2.56-1.33-3.27
		c-0.88-0.68-2.01-1.01-3.39-1.01h-4.68v0.29v15.5h2.77v-6.54h0.98c1.1,0,1.69,0.27,1.9,0.7c0.26,0.52,0.56,1.29,0.81,2.28l1,3.57
		h2.55l-0.96-4.58C267.48,140.29,267.21,139.5,266.86,138.95 M264.51,136.5c-0.56,0.37-1.26,0.55-2.1,0.55h-1v-4.58h1.5
		c0.84,0,1.45,0.18,1.83,0.51c0.36,0.3,0.56,0.86,0.56,1.69C265.29,135.58,265.04,136.15,264.51,136.5 M276.88,137.15v-0.01
		l-1.5-0.88c-0.61-0.34-1.17-0.7-1.68-1.06c-0.45-0.33-0.66-0.71-0.66-1.26c0-0.56,0.21-0.94,0.57-1.24c0.4-0.3,0.95-0.46,1.67-0.46
		c0.62,0,1.14,0.06,1.57,0.18c0.47,0.13,1.1,0.3,1.9,0.57l0.37,0.1v-2.67l-0.19-0.05c-0.51-0.13-1.07-0.23-1.62-0.33
		c-0.57-0.08-1.2-0.12-1.93-0.12c-1.55,0-2.83,0.34-3.81,1.05c-1,0.69-1.52,1.79-1.5,3.14c0,0.9,0.19,1.62,0.63,2.19
		c0.42,0.58,1.35,1.24,2.79,2.07l1.41,0.81c0.86,0.52,1.49,0.95,1.84,1.29c0.32,0.31,0.49,0.75,0.49,1.39c0,0.72-0.25,1.17-0.7,1.48
		c-0.51,0.34-1.14,0.49-1.92,0.49c-0.74,0-1.44-0.09-2.1-0.31c-0.68-0.21-1.28-0.47-1.79-0.78l-0.43-0.24v2.99l0.17,0.07
		c0.64,0.21,1.31,0.37,1.95,0.46c0.65,0.1,1.34,0.14,2.02,0.14c1.69,0,3.08-0.38,4.15-1.15c1.08-0.78,1.63-1.97,1.63-3.45
		c0-1.11-0.31-2.01-0.91-2.64C278.75,138.33,277.95,137.76,276.88,137.15 M282.4,130.44v15.49h2.78v-15.78h-2.78V130.44z
		 M292.75,130.15h-4.19v0.29v15.49h4.19c2.08,0,3.72-0.56,4.9-1.73c1.22-1.16,1.78-3.25,1.78-6.22c0-2.59-0.5-4.55-1.58-5.86
		C296.78,130.79,295.05,130.14,292.75,130.15 M295.43,142.46c-0.65,0.76-1.67,1.15-3.09,1.15h-1.02v-11.14l1,0.02
		c1.5,0,2.51,0.38,3.14,1.1c0.63,0.69,1,2.2,0.97,4.46C296.46,140.25,296.09,141.75,295.43,142.46 M305.76,130.15l-0.06,0.2
		l-5.33,15.58h2.96l1.45-4.35h5.08l1.47,4.35h2.93l-5.4-15.78H305.76L305.76,130.15z M305.46,139.26l1.86-5.85l1.73,5.85H305.46z
		 M320.16,130.15H316v0.29v15.49h4.16h0.02c2.08,0,3.72-0.56,4.92-1.73c1.21-1.16,1.75-3.25,1.75-6.22c0-2.59-0.48-4.55-1.57-5.86
		C324.2,130.79,322.47,130.14,320.16,130.15 M322.87,142.46c-0.65,0.76-1.68,1.15-3.1,1.15h-1.02v-11.14l0.99,0.02
		c1.51,0,2.52,0.38,3.14,1.1c0.61,0.69,1,2.2,0.98,4.46C323.86,140.25,323.5,141.75,322.87,142.46 M340.63,130.15h-4.17v0.29v15.49
		h4.17h0.01c2.08,0,3.74-0.56,4.92-1.73c1.21-1.16,1.75-3.25,1.75-6.22c0-2.59-0.52-4.55-1.56-5.86
		C344.69,130.79,342.93,130.14,340.63,130.15 M343.32,142.46c-0.64,0.76-1.65,1.15-3.08,1.15h-1.03v-11.14l1,0.02
		c1.49,0,2.52,0.38,3.14,1.1c0.63,0.69,1.01,2.2,0.98,4.46C344.36,140.25,343.97,141.75,343.32,142.46 M352.72,138.89h5.89v-2.04
		v-0.29h-5.89v-4.1h6.21v-2.04v-0.29h-8.98v0.29v15.5h9.17v-2.05v-0.28h-6.4V138.89z M382.32,130.15l-0.07,0.2l-5.27,15.42v-1.88
		v-0.28h-5.83v-13.45h-2.76v0.29v15.49h8.59h2.89l1.46-4.35h5.07l1.5,4.35h2.91l-5.4-15.78H382.32z M382.02,139.26l1.87-5.85
		l1.72,5.85H382.02z M398.45,137.15l0.01-0.01l-1.49-0.88c-0.63-0.34-1.19-0.7-1.7-1.06c-0.43-0.33-0.63-0.71-0.64-1.26
		c0-0.56,0.17-0.94,0.57-1.24c0.4-0.3,0.94-0.46,1.65-0.46c0.63,0,1.14,0.06,1.6,0.18c0.47,0.13,1.1,0.3,1.9,0.57l0.37,0.1v-2.67
		l-0.21-0.05c-0.53-0.13-1.06-0.23-1.58-0.33c-0.59-0.08-1.24-0.12-1.94-0.12c-1.56,0-2.83,0.34-3.82,1.05
		c-1.02,0.69-1.54,1.79-1.53,3.14c0,0.9,0.21,1.62,0.65,2.19c0.44,0.58,1.37,1.24,2.8,2.07l1.39,0.81c0.86,0.52,1.5,0.95,1.85,1.29
		c0.3,0.31,0.48,0.75,0.48,1.39c0,0.72-0.25,1.17-0.69,1.48c-0.52,0.34-1.14,0.49-1.94,0.49c-0.72,0-1.42-0.09-2.09-0.31
		c-0.66-0.21-1.25-0.47-1.77-0.78l-0.44-0.24v2.99l0.19,0.07c0.63,0.21,1.28,0.37,1.95,0.46c0.65,0.1,1.33,0.14,2.02,0.14
		c1.65,0,3.08-0.38,4.13-1.15c1.08-0.78,1.64-1.97,1.61-3.45c0-1.11-0.27-2.01-0.87-2.64C400.32,138.33,399.51,137.76,398.45,137.15
		 M414.65,130.15l-0.08,0.2l-5.3,15.58h2.93l1.46-4.35h5.08l1.48,4.35h2.92l-5.39-15.78H414.65L414.65,130.15z M414.34,139.26
		l1.87-5.85l1.74,5.85H414.34z M432.53,142.06l-4.11-11.91h-3.57v0.29v15.5h2.55l0.03-11.26l3.88,11.26h2.48l3.94-11.26v11.26h2.53
		v-15.78l-3.55,0.01L432.53,142.06z M446.42,138.89h5.88v-2.04v-0.29h-5.88v-4.1h6.21v-2.04v-0.29h-8.96v0.29v15.5h9.15v-2.05v-0.28
		h-6.41V138.89z M463.31,138.95c-0.25-0.39-0.64-0.71-1.16-0.94c0.58-0.21,1.08-0.53,1.49-0.92c0.6-0.63,0.87-1.53,0.87-2.66
		c0-1.44-0.42-2.56-1.33-3.27c-0.88-0.68-2.02-1.01-3.39-1.01h-4.68v0.29v15.5h2.76v-6.54h0.97c1.1,0,1.71,0.27,1.91,0.7
		c0.28,0.52,0.55,1.29,0.83,2.28l0.95,3.57h2.59l-1-4.58C463.91,140.29,463.65,139.5,463.31,138.95 M460.96,136.5
		c-0.57,0.37-1.25,0.55-2.1,0.55h-1v-4.58h1.5c0.83,0,1.44,0.18,1.81,0.51c0.39,0.3,0.58,0.86,0.58,1.69
		C461.75,135.58,461.49,136.15,460.96,136.5 M467.38,130.44v15.49h2.75v-15.78h-2.75V130.44z M478.82,129.93
		c-2.13,0-3.74,0.74-4.65,2.25c-0.93,1.48-1.37,3.38-1.37,5.69c0,2.84,0.55,4.94,1.75,6.3c1.14,1.32,2.72,2.01,4.6,2.01
		c0.79,0,1.56-0.1,2.3-0.33c0.71-0.19,1.3-0.39,1.79-0.61l0.17-0.1v-0.16v-2.06v-0.49l-0.42,0.26c-0.59,0.33-1.11,0.62-1.61,0.82
		c-0.42,0.21-1.04,0.31-1.81,0.3c-1.42,0-2.32-0.51-2.91-1.58c-0.59-1.09-0.91-2.68-0.91-4.75c0-1.46,0.25-2.71,0.67-3.78
		c0.44-1.02,1.14-1.47,2.34-1.5c0.88,0.02,1.38,0.27,1.66,0.69c0.31,0.51,0.46,1.06,0.46,1.67v0.29h3.14v-0.29
		c0-1.39-0.47-2.54-1.41-3.4C481.7,130.33,480.41,129.93,478.82,129.93 M489.51,130.15l-0.05,0.2l-5.31,15.58h2.92l1.47-4.35h5.08
		l1.49,4.35h2.92l-5.4-15.78H489.51L489.51,130.15z M489.2,139.26l1.89-5.85l1.72,5.85H489.2z M508.09,138.92
		c-0.57-0.59-1.38-1.16-2.44-1.79l-1.49-0.88c-0.62-0.34-1.19-0.7-1.67-1.06c-0.48-0.33-0.65-0.71-0.65-1.26
		c0-0.56,0.17-0.94,0.56-1.24c0.38-0.3,0.94-0.46,1.65-0.46c0.62,0,1.16,0.06,1.6,0.18c0.45,0.13,1.1,0.3,1.91,0.57l0.35,0.1v-2.67
		l-0.19-0.05c-0.52-0.13-1.05-0.23-1.62-0.33c-0.57-0.08-1.21-0.12-1.92-0.12c-1.55,0-2.81,0.34-3.82,1.05
		c-0.98,0.69-1.5,1.79-1.5,3.14c0,0.9,0.21,1.62,0.63,2.19c0.46,0.58,1.38,1.24,2.81,2.07l1.39,0.81c0.88,0.52,1.48,0.95,1.84,1.29
		c0.32,0.31,0.5,0.75,0.5,1.39c-0.02,0.72-0.24,1.17-0.72,1.48c-0.47,0.34-1.11,0.49-1.87,0.49c-0.78,0-1.46-0.09-2.12-0.31
		c-0.66-0.21-1.29-0.47-1.8-0.78l-0.41-0.24v2.99l0.19,0.07c0.63,0.21,1.27,0.37,1.94,0.46c0.63,0.1,1.31,0.14,1.99,0.14
		c1.7,0,3.08-0.38,4.15-1.15c1.09-0.78,1.63-1.97,1.63-3.45C509,140.45,508.7,139.55,508.09,138.92"/>
	<rect x="446.35" y="127.74" class="st1" width="6.22" height="1.2"/>
</g>
</svg>
